<?xml version="1.0" standalone="no"?><!DOCTYPE svg PUBLIC "-//W3C//DTD SVG 1.1//EN" "http://www.w3.org/Graphics/SVG/1.1/DTD/svg11.dtd"><svg t="1687450806343" class="icon" viewBox="0 0 1024 1024" version="1.1" xmlns="http://www.w3.org/2000/svg" p-id="11208" xmlns:xlink="http://www.w3.org/1999/xlink" width="16" height="16"><path d="M1024 904.192a51.2 51.2 0 0 1-51.2 51.2H356.864a51.2 51.2 0 0 1-51.2-51.2 51.2 51.2 0 0 1 51.2-51.2H972.8a51.2 51.2 0 0 1 51.2 51.2z m0-384a51.2 51.2 0 0 1-51.2 51.2H356.864a51.2 51.2 0 0 1-51.2-51.2 51.2 51.2 0 0 1 51.2-51.2H972.8a51.2 51.2 0 0 1 51.2 51.2z m0-384a51.2 51.2 0 0 1-51.2 51.2H356.864a51.2 51.2 0 0 1-51.2-51.2 51.2 51.2 0 0 1 51.2-51.2H972.8a51.2 51.2 0 0 1 51.2 51.2z m0-51.2M76.8 833.536a76.8 76.8 0 1 0 76.8 76.8 76.8 76.8 0 0 0-76.8-76.8zM76.8 447.232a76.8 76.8 0 1 0 76.8 76.8 76.8 76.8 0 0 0-76.8-76.8zM76.8 53.504a76.8 76.8 0 1 0 76.8 76.8 76.8 76.8 0 0 0-76.8-76.8z" p-id="11209"></path></svg>