<svg width="298" height="88" viewBox="0 0 298 88" fill="none" xmlns="http://www.w3.org/2000/svg">
<path d="M160.373 20.5154C157.149 17.9007 153.126 16.4717 148.976 16.4667C144.825 16.4721 140.802 17.9019 137.578 20.5175L136.975 21.0099L137.09 20.2389C137.377 18.2938 138.139 16.449 139.308 14.8683C140.477 13.2876 142.018 12.0194 143.794 11.1758C143.022 9.93745 142.088 8.80681 141.019 7.81309C140.781 7.89328 140.532 7.9336 140.281 7.93273C139.813 7.93315 139.355 7.79486 138.965 7.53499C138.575 7.2751 138.271 6.90566 138.092 6.47309C137.912 6.04052 137.865 5.5643 137.956 5.1049C138.047 4.6455 138.273 4.22332 138.604 3.892C138.935 3.56067 139.357 3.33533 139.816 3.2438C140.276 3.15229 140.752 3.19869 141.185 3.3778C141.617 3.55695 141.987 3.8605 142.247 4.24986C142.507 4.63926 142.646 5.09706 142.646 5.56542C142.644 5.7662 142.613 5.96559 142.555 6.15776C143.884 7.39253 145.025 8.81448 145.944 10.3788C147.932 9.8651 150.019 9.8651 152.008 10.3788C152.929 8.81815 154.072 7.39967 155.401 6.1668C155.339 5.97158 155.307 5.76802 155.305 5.56329C155.305 5.09513 155.444 4.63755 155.704 4.24827C155.964 3.85898 156.334 3.55546 156.766 3.37621C157.199 3.19695 157.675 3.14997 158.134 3.24114C158.593 3.33233 159.014 3.5574 159.346 3.88827C159.677 4.21918 159.903 4.64102 159.994 5.10014C160.086 5.55923 160.039 6.03514 159.861 6.46777C159.682 6.90043 159.378 7.27034 158.99 7.53074C158.6 7.79114 158.143 7.93018 157.675 7.9306C157.425 7.93158 157.176 7.89196 156.939 7.81309C155.87 8.80812 154.935 9.93773 154.157 11.1737C155.933 12.0171 157.474 13.2854 158.643 14.8661C159.813 16.4469 160.575 18.2916 160.861 20.2368L160.979 21.0078L160.373 20.5154Z" fill="#EB5446"/>
<path d="M162.903 45.8623L149.618 32.5763L145.549 36.6472L154.496 45.5943C152.392 46.8031 149.948 47.2844 147.543 46.9635C145.138 46.6429 142.905 45.538 141.191 43.8199C139.477 42.1019 138.378 39.8663 138.063 37.4603C137.748 35.0543 138.235 32.6115 139.449 30.5104C140.663 28.409 142.536 26.767 144.778 25.838C147.02 24.9089 149.505 24.7446 151.85 25.3711C154.194 25.9976 156.267 27.3798 157.746 29.3033C159.225 31.2269 160.029 33.5845 160.033 36.0113H165.794C165.795 32.1255 164.449 28.3592 161.985 25.3546C159.521 22.3499 156.091 20.2926 152.28 19.5331C148.469 18.7735 144.513 19.3586 141.085 21.1889C137.657 23.0193 134.97 25.9814 133.481 29.5707C131.993 33.1601 131.795 37.1551 132.921 40.8741C134.047 44.5933 136.428 47.8069 139.658 49.9673C142.888 52.1281 146.767 53.1017 150.634 52.7228C154.501 52.3443 158.118 50.636 160.867 47.89L162.903 45.8623Z" fill="#EB5446"/>
<path d="M0 76V77.62H3.22488V86.1999H5.47621V77.62H8.76193V76H0Z" fill="white"/>
<path d="M17.5239 81.4V78.16H15.881V76H13.6297V78.16H11.9869V81.4H10.344V86.1999H12.5953V82.9599H16.8546V86.1999H19.1059V81.4H17.5239ZM14.2382 78.7H15.2726V81.4H14.2382V78.7Z" fill="white"/>
<path d="M23.0001 84.5799V76H20.7488V86.1999H29.5107V84.5799H23.0001Z" fill="white"/>
<path d="M36.6296 79.78V78.7H38.2725V77.62H39.8545V76H37.664V77.08H36.0212V78.16H34.3783V79.24H33.3439V76H31.1534V86.1999H33.3439V81.88H34.3783V82.9599H36.0212V84.0399H37.664V86.1999H39.8545V83.4999H38.2725V82.4199H36.6296V81.4H34.9868V79.78H36.6296Z" fill="white"/>
<path d="M55.5531 77.62V76H50.0769V77.62H51.7198V84.5799H50.0769V86.1999H55.5531V84.5799H53.9103V77.62H55.5531Z" fill="white"/>
<path d="M65.958 78.7V77.08H64.3151V76H58.8389V77.08H57.196V80.86H58.8389V81.88H63.7066V84.5799H59.4474V83.4999H57.196V85.1199H58.8389V86.1999H64.3151V85.1199H65.958V81.4H64.3151V80.32H59.4474V77.62H63.7066V78.7H65.958Z" fill="white"/>
<path d="M83.2383 78.7V77.08H81.5954V76H76.1192V77.08H74.4764V85.1199H76.1192V86.1999H81.5954V85.1199H83.2383V83.4999H80.987V84.5799H76.7277V77.62H80.987V78.7H83.2383Z" fill="white"/>
<path d="M91.3918 76V80.32H87.1326V76H84.8812V86.1999H87.1326V81.88H91.3918V86.1999H93.5823V76H91.3918Z" fill="white"/>
<path d="M103.987 77.62V76H95.2252V86.1999H103.987V84.5799H97.4765V81.88H102.344V80.32H97.4765V77.62H103.987Z" fill="white"/>
<path d="M112.749 81.4V78.16H111.106V76H108.855V78.16H107.273V81.4H105.63V86.1999H107.881V82.9599H112.141V86.1999H114.392V81.4H112.749ZM109.463 78.7H110.498V81.4H109.463V78.7Z" fill="white"/>
<path d="M123.093 77.08V76H115.974V86.1999H118.225V81.88H123.093V80.86H124.736V77.08H123.093ZM122.484 80.32H118.225V77.62H122.484V80.32Z" fill="white"/>
<path d="M144.497 78.7V77.08H142.854V76H137.378V77.08H135.735V80.86H137.378V81.94H142.246V84.6399H137.986V83.5599H135.735V85.1799H137.378V86.1999H142.854V85.1799H144.497V81.4H142.854V80.32H137.986V77.62H142.246V78.7H144.497Z" fill="white"/>
<path d="M152.65 76V80.32H148.33V76H146.14V86.1999H148.33V81.94H152.65V86.1999H154.841V76H152.65Z" fill="white"/>
<path d="M163.603 77.08V76H158.127V77.08H156.484V85.1199H158.127V86.1999H163.603V85.1199H165.246V77.08H163.603ZM162.994 84.6399H158.735V77.62H162.994V84.6399Z" fill="white"/>
<path d="M173.399 76V82.4799H172.365V76H170.113V82.4799H169.079V76H166.889V83.0199H168.471V86.1999H170.722V83.0199H171.756V86.1999H174.008V83.0199H175.59V76H173.399Z" fill="white"/>
<path d="M190.68 76V77.08H189.037V78.16H188.063V77.08H186.42V76H184.169V86.1999H186.42V78.7H187.455V79.78H189.645V78.7H190.68V86.1999H192.931V76H190.68Z" fill="white"/>
<path d="M203.275 77.62V76H194.574V86.1999H203.275V84.6399H196.764V81.94H201.693V80.32H196.764V77.62H203.275Z" fill="white"/>
<path d="M211.854 76V77.62H215.079V86.1999H217.33V77.62H220.616V76H211.854Z" fill="white"/>
<path d="M228.709 76V80.32H224.45V76H222.259V86.1999H224.45V81.94H228.709V86.1999H230.96V76H228.709Z" fill="white"/>
<path d="M241.365 77.62V76H232.603V86.1999H241.365V84.6399H234.854V81.94H239.722V80.32H234.854V77.62H241.365Z" fill="white"/>
<path d="M258.646 78.7V77.08H257.003V76H251.527V77.08H249.884V85.1799H251.527V86.1999H257.003V85.1799H258.646V83.5599H256.394V84.6399H252.135V77.62H256.394V78.7H258.646Z" fill="#D9574C"/>
<path d="M267.408 77.08V76H261.931V77.08H260.288V85.1199H261.931V86.1999H267.408V85.1199H269.05V77.08H267.408ZM266.799 84.6399H262.54V77.62H266.799V84.6399Z" fill="#D9574C"/>
<path d="M277.812 78.16V77.08H276.17V76H270.693V86.1999H276.17V85.1199H277.812V84.0399H279.455V78.16H277.812ZM277.204 83.5599H275.561V84.6399H272.945V77.62H275.561V78.7H277.204V83.5599Z" fill="#D9574C"/>
<path d="M289.799 77.62V76H281.037V86.1999H289.799V84.6399H283.288V81.94H288.156V80.32H283.288V77.62H289.799Z" fill="#D9574C"/>
<path d="M298 85H291.992V86.2H298V85Z" fill="white"/>
<path d="M127.767 84.5652H129.774V88H127.767V84.5652Z" fill="white"/>
</svg>
