<?xml version="1.0" standalone="no"?><!DOCTYPE svg PUBLIC "-//W3C//DTD SVG 1.1//EN" "http://www.w3.org/Graphics/SVG/1.1/DTD/svg11.dtd"><svg t="1687450581238" class="icon" viewBox="0 0 1024 1024" version="1.1" xmlns="http://www.w3.org/2000/svg" p-id="6646" xmlns:xlink="http://www.w3.org/1999/xlink" width="16" height="16"><path d="M809.9550073 760.29572625H343.87892939L164.38571167 859.31623623V462.26603621v0.02512055V214.0449927C164.38571167 186.60722662 186.60790556 164.38571167 214.0449927 164.38571167h595.9100146C837.36697388 164.38571167 859.61428833 186.60790556 859.61428833 214.0449927V710.63576627c0 27.41196658-22.24731445 49.65928103-49.65928103 49.65928106z m0-521.42143249c0-13.70564383-11.12365723-24.82930105-24.82930106-24.82930106H238.87429376c-13.70564383 0-24.82930105 11.12365723-24.82930106 24.82930106V760.46953339l103.0676365-49.83308818h468.01307704c13.70564383 0 24.82930105-11.12365723 24.82930106-24.82930104V238.87429376z m-173.80714417 173.80714416h-347.61428833c-13.70564383 0-24.82930105-11.12365723-24.82930105-24.82930105 0-13.70632277 11.12365723-24.82997999 24.82930105-24.82997999h347.61428833c13.70632277 0 24.82997999 11.12365723 24.82997998 24.82997999 0 13.70564383-11.12365723 24.82930105-24.82997998 24.82930105zM288.5335748 512h148.97784311c13.70564383 0 24.82930105 11.12365723 24.82930106 24.82930105 0 13.70632277-11.12365723 24.82997999-24.82930106 24.82997998H288.5335748c-13.70564383 0-24.82930105-11.12365723-24.82930105-24.82997999 0-13.70564383 11.12365723-24.82930105 24.82930105-24.82930104z" fill="#363F4D" p-id="6647"></path></svg>